<svg xmlns="http://www.w3.org/2000/svg" width="22.771" height="22.787" viewBox="0 0 22.771 22.787">
  <g id="aparat-gray" transform="translate(0 0)">
    <g id="logo--color-black">
      <path id="Path_30113" data-name="Path 30113" d="M140.363.66,138.28.114a3.526,3.526,0,0,0-4.333,2.5l-.527,1.977A10.8,10.8,0,0,1,140.363.66Z" transform="translate(-130.535 0.009)" fill="#7b8890"/>
      <path id="Path_30114" data-name="Path 30114" d="M125.4,39.33l-.513,1.933a3.526,3.526,0,0,0,2.5,4.313l2,.533A10.8,10.8,0,0,1,125.4,39.33Z" transform="translate(-124.763 -26.218)" fill="#7b8890"/>
      <path id="Path_30115" data-name="Path 30115" d="M180.727,9.057l-2.247-.6a10.8,10.8,0,0,1,4.133,7.233l.617-2.333a3.526,3.526,0,0,0-2.5-4.3Z" transform="translate(-160.576 -5.637)" fill="#7b8890"/>
      <path id="Path_30116" data-name="Path 30116" d="M163.45,57.853l2.147.58a3.526,3.526,0,0,0,4.313-2.5l.607-2.28a10.806,10.806,0,0,1-7.066,4.2Z" transform="translate(-150.555 -35.765)" fill="#7b8890"/>
      <path id="Path_30117" data-name="Path 30117" d="M139.166,4.54a9.876,9.876,0,1,0,9.876,9.876,9.876,9.876,0,0,0-9.876-9.876Zm-5.59,4.926a2.82,2.82,0,1,1,2.237,3.3,2.82,2.82,0,0,1-2.237-3.3Zm4.1,8.533a2.82,2.82,0,1,1-.433-2.117A2.82,2.82,0,0,1,137.679,18Zm1.2-2.283a1.253,1.253,0,1,1,.943-.194,1.253,1.253,0,0,1-.943.194Zm5.883,3.643a2.82,2.82,0,1,1-2.233-3.3A2.82,2.82,0,0,1,144.759,19.359Zm-1.867-5.226a2.82,2.82,0,1,1,3.3-2.237,2.82,2.82,0,0,1-3.3,2.237Z" transform="translate(-127.781 -3.024)" fill="#7b8890"/>
    </g>
  </g>
</svg>
