<svg xmlns="http://www.w3.org/2000/svg" width="22.603" height="25.847" viewBox="0 0 22.603 25.847">
  <path id="copy" d="M54.514,8.333,46.4.222A.757.757,0,0,0,45.868,0H34.512a2.378,2.378,0,0,0-2.379,2.379V23.467a2.378,2.378,0,0,0,2.379,2.379H52.356a2.382,2.382,0,0,0,2.379-2.379V8.868A.757.757,0,0,0,54.514,8.333ZM46.625,2.585,52.15,8.111H47.49a.864.864,0,0,1-.865-.865Zm5.731,21.747H34.512a.864.864,0,0,1-.865-.865V2.379a.864.864,0,0,1,.865-.865h10.6V7.246A2.378,2.378,0,0,0,47.49,9.625h5.731V23.467A.866.866,0,0,1,52.356,24.332Z" transform="translate(-32.133 0)" fill="#d0c0b9"/>
</svg>
