<svg xmlns="http://www.w3.org/2000/svg" width="22.787" height="22.788" viewBox="0 0 22.787 22.788">
  <g id="instagram-gray" transform="translate(0 0)">
    <path id="Path_2288" data-name="Path 2288" d="M22.8,6.775a8.415,8.415,0,0,0-.531-2.767A5.618,5.618,0,0,0,20.956,1.99,5.532,5.532,0,0,0,18.94.678,8.4,8.4,0,0,0,16.174.147C14.957.091,14.57.079,11.479.079S8,.091,6.784.147A8.4,8.4,0,0,0,4.019.678,5.614,5.614,0,0,0,2,1.99,5.536,5.536,0,0,0,.691,4.008,8.415,8.415,0,0,0,.16,6.775C.1,7.993.092,8.381.092,11.473s.012,3.486.069,4.7a8.415,8.415,0,0,0,.531,2.767A5.618,5.618,0,0,0,2,20.956a5.532,5.532,0,0,0,2.017,1.312,8.4,8.4,0,0,0,2.766.531c1.217.056,1.6.069,4.695.069s3.484-.012,4.695-.069a8.4,8.4,0,0,0,2.766-.531,5.614,5.614,0,0,0,2.017-1.312,5.536,5.536,0,0,0,1.311-2.018,8.415,8.415,0,0,0,.531-2.767c.056-1.218.069-1.605.069-4.7S22.854,7.987,22.8,6.775Zm-2.048,9.3a6.276,6.276,0,0,1-.393,2.118,3.541,3.541,0,0,1-.855,1.312,3.617,3.617,0,0,1-1.311.856,6.266,6.266,0,0,1-2.116.394c-1.2.056-1.561.069-4.6.069s-3.4-.012-4.6-.069a6.266,6.266,0,0,1-2.116-.394,3.538,3.538,0,0,1-1.311-.856,3.62,3.62,0,0,1-.855-1.312A6.276,6.276,0,0,1,2.2,16.077c-.056-1.2-.069-1.562-.069-4.6s.012-3.4.069-4.6a6.276,6.276,0,0,1,.393-2.118,3.541,3.541,0,0,1,.855-1.312,3.617,3.617,0,0,1,1.311-.856A6.266,6.266,0,0,1,6.872,2.19c1.2-.056,1.561-.069,4.6-.069s3.4.012,4.6.069a6.266,6.266,0,0,1,2.116.394,3.538,3.538,0,0,1,1.311.856,3.62,3.62,0,0,1,.855,1.312,6.276,6.276,0,0,1,.393,2.118c.056,1.2.069,1.562.069,4.6S20.8,14.877,20.75,16.077Z" transform="translate(-0.079 -0.079)" fill="#7b8890"/>
    <path id="Path_2289" data-name="Path 2289" d="M17.561,11.711a5.853,5.853,0,1,0,5.85,5.853A5.851,5.851,0,0,0,17.561,11.711Zm0,9.651a3.8,3.8,0,1,1,3.8-3.8A3.8,3.8,0,0,1,17.561,21.363Z" transform="translate(-6.168 -6.171)" fill="#7b8890"/>
    <ellipse id="Ellipse_9" data-name="Ellipse 9" cx="1.367" cy="1.368" rx="1.367" ry="1.368" transform="translate(16.107 3.942)" fill="#7b8890"/>
    <path id="Path_2290" data-name="Path 2290" d="M.066,11.473c0,3.1.012,3.486.069,4.7a8.415,8.415,0,0,0,.531,2.767,5.618,5.618,0,0,0,1.311,2.018,5.532,5.532,0,0,0,2.017,1.312,8.4,8.4,0,0,0,2.766.531c1.217.056,1.6.069,4.695.069s3.484-.012,4.695-.069a8.4,8.4,0,0,0,2.766-.531,5.614,5.614,0,0,0,2.017-1.312,5.536,5.536,0,0,0,1.311-2.018,8.415,8.415,0,0,0,.531-2.767c.056-1.218.069-1.605.069-4.7s-.012-3.486-.069-4.7a8.415,8.415,0,0,0-.531-2.767A5.618,5.618,0,0,0,20.93,1.99,5.532,5.532,0,0,0,18.913.678,8.4,8.4,0,0,0,16.148.147C14.93.091,14.543.079,11.453.079S7.969.091,6.758.147A8.4,8.4,0,0,0,3.992.678,5.614,5.614,0,0,0,1.976,1.99,5.536,5.536,0,0,0,.665,4.008,8.415,8.415,0,0,0,.134,6.775C.078,7.987.066,8.375.066,11.473Zm2.054,0c0-3.042.012-3.4.069-4.6a6.276,6.276,0,0,1,.393-2.118,3.541,3.541,0,0,1,.855-1.312,3.617,3.617,0,0,1,1.311-.856A6.266,6.266,0,0,1,6.864,2.19c1.2-.056,1.561-.069,4.6-.069s3.4.012,4.6.069a6.266,6.266,0,0,1,2.116.394,3.538,3.538,0,0,1,1.311.856,3.62,3.62,0,0,1,.855,1.312,6.276,6.276,0,0,1,.393,2.118c.056,1.2.069,1.562.069,4.6s-.012,3.4-.069,4.6a6.276,6.276,0,0,1-.393,2.118,3.541,3.541,0,0,1-.855,1.312,3.617,3.617,0,0,1-1.311.856,6.266,6.266,0,0,1-2.116.394c-1.2.056-1.561.069-4.6.069s-3.4-.012-4.6-.069a6.266,6.266,0,0,1-2.116-.394,3.538,3.538,0,0,1-1.311-.856,3.62,3.62,0,0,1-.855-1.312,6.276,6.276,0,0,1-.393-2.118C2.132,14.877,2.12,14.515,2.12,11.473Z" transform="translate(-0.066 -0.079)" fill="#7b8890"/>
  </g>
</svg>
