<svg xmlns="http://www.w3.org/2000/svg" width="19.173" height="17.195" viewBox="0 0 19.173 17.195">
  <path id="like" d="M42.531,52.242c-2.318,0-3.542,1.115-4.583,2.961-1.041-1.846-2.265-2.961-4.583-2.961a5.007,5.007,0,0,0-5,5,7.66,7.66,0,0,0,1.8,4.812,33.475,33.475,0,0,0,4.2,4.2c1.068.955,2.172,1.942,3.287,3.058a.419.419,0,0,0,.592,0c1.117-1.117,2.223-2.106,3.293-3.062a33.465,33.465,0,0,0,4.2-4.2,7.655,7.655,0,0,0,1.8-4.81A5.01,5.01,0,0,0,42.531,52.242ZM40.979,65.628c-.984.88-2,1.787-3.031,2.8-1.03-1.012-2.043-1.918-3.025-2.8-3.2-2.859-5.722-5.117-5.722-8.389a4.169,4.169,0,0,1,4.164-4.164c1.948,0,3.01.809,4.208,3.206a.419.419,0,0,0,.749,0c1.2-2.4,2.26-3.206,4.208-3.206A4.171,4.171,0,0,1,46.7,57.243C46.7,60.513,44.175,62.77,40.979,65.628Z" transform="translate(-28.364 -52.242)" fill="#535353"/>
</svg>
