<svg xmlns="http://www.w3.org/2000/svg" width="22.787" height="18.989" viewBox="0 0 22.787 18.989">
  <g id="twitter-gray" transform="translate(0 0)">
    <g id="Group_2497" data-name="Group 2497">
      <path id="Path_2287" data-name="Path 2287" d="M322.787,166.248A9.132,9.132,0,0,1,320.1,167a4.783,4.783,0,0,0,2.056-2.651,9.208,9.208,0,0,1-2.971,1.162A4.61,4.61,0,0,0,315.776,164a4.735,4.735,0,0,0-4.673,4.794,4.892,4.892,0,0,0,.12,1.092,13.162,13.162,0,0,1-9.637-5.01,4.881,4.881,0,0,0-.633,2.413,4.825,4.825,0,0,0,2.08,3.99,4.59,4.59,0,0,1-2.119-.6v.059a4.766,4.766,0,0,0,3.752,4.7,4.458,4.458,0,0,1-1.232.169,4.541,4.541,0,0,1-.88-.085,4.693,4.693,0,0,0,4.367,3.327,9.231,9.231,0,0,1-5.806,2.053,9.357,9.357,0,0,1-1.115-.066,13.016,13.016,0,0,0,7.166,2.152c8.6,0,13.3-7.3,13.3-13.639,0-.208,0-.417-.012-.621a9.6,9.6,0,0,0,2.331-2.481" transform="translate(-300 -164)" fill="#7b8890" fill-rule="evenodd"/>
    </g>
  </g>
</svg>
