<svg xmlns="http://www.w3.org/2000/svg" width="22.787" height="16.141" viewBox="0 0 22.787 16.141">
  <g id="youtube-gray" transform="translate(0 0)">
    <g id="Group_2749" data-name="Group 2749">
      <path id="Path_30118" data-name="Path 30118" d="M209.041,379.047V372.6l6.157,3.235Zm13.519-7.565a4.989,4.989,0,0,0-.906-2.278,3.243,3.243,0,0,0-2.283-.972C216.182,368,211.4,368,211.4,368h-.01s-4.783,0-7.972.232a3.244,3.244,0,0,0-2.284.972,4.985,4.985,0,0,0-.905,2.278A34.958,34.958,0,0,0,200,375.2v1.741a34.941,34.941,0,0,0,.228,3.714,4.985,4.985,0,0,0,.905,2.278,3.846,3.846,0,0,0,2.513.981c1.823.176,7.748.231,7.748.231s4.788-.007,7.977-.24a3.248,3.248,0,0,0,2.283-.972,4.989,4.989,0,0,0,.906-2.278,34.943,34.943,0,0,0,.228-3.714V375.2a34.961,34.961,0,0,0-.228-3.714Z" transform="translate(-200 -368)" fill="#7b8890" fill-rule="evenodd"/>
    </g>
  </g>
</svg>
